<svg width="24" height="24" viewBox="0 0 24 24" fill="none" xmlns="http://www.w3.org/2000/svg">
<g id="logo">
<path d="M2.22 17.32V6.04H5.58V7.42H3.72V15.94H5.58V17.32H2.22ZM9.11531 11.296C8.77931 11.296 8.50731 11.204 8.29931 11.02C8.09931 10.828 7.99931 10.584 7.99931 10.288C7.99931 9.984 8.09931 9.74 8.29931 9.556C8.50731 9.372 8.77931 9.28 9.11531 9.28C9.45131 9.28 9.71931 9.372 9.91931 9.556C10.1273 9.74 10.2313 9.984 10.2313 10.288C10.2313 10.584 10.1273 10.828 9.91931 11.02C9.71931 11.204 9.45131 11.296 9.11531 11.296ZM9.11531 16.12C8.77931 16.12 8.50731 16.028 8.29931 15.844C8.09931 15.66 7.99931 15.416 7.99931 15.112C7.99931 14.808 8.09931 14.564 8.29931 14.38C8.50731 14.196 8.77931 14.104 9.11531 14.104C9.45131 14.104 9.71931 14.196 9.91931 14.38C10.1273 14.564 10.2313 14.808 10.2313 15.112C10.2313 15.416 10.1273 15.66 9.91931 15.844C9.71931 16.028 9.45131 16.12 9.11531 16.12ZM15.3506 16C14.7186 16 14.2226 15.824 13.8626 15.472C13.5106 15.12 13.3346 14.636 13.3346 14.02V10.756H11.5466V9.4H13.3346V7.54H14.8466V9.4H17.3786V10.756H14.8466V14.02C14.8466 14.436 15.0506 14.644 15.4586 14.644H17.2586V16H15.3506ZM18.1659 17.32V15.94H20.0259V7.42H18.1659V6.04H21.5259V17.32H18.1659Z" fill="white"/>
</g>
<style>#logo{fill:black;}@media(prefers-color-scheme:dark){#logo{fill:white;}}</style>
</svg>
